HIERARCHY
ROOT Hips
{
	OFFSET 0.000000 71.427986 0.000000
	CHANNELS 6 Xposition Yposition Zposition Xrotation Yrotation Zrotation
	JOINT Pelvis
	{
		OFFSET 0.000000 0.000000 0.000000
		CHANNELS 3 Xrotation Yrotation Zrotation
		JOINT LeftUpLeg
		{
			OFFSET 6.797100 -2.508499 -1.318700
			CHANNELS 3 Xrotation Yrotation Zrotation
			JOINT LeftLeg
			{
				OFFSET 0.069008 -29.241863 0.690200
				CHANNELS 3 Xrotation Yrotation Zrotation
				JOINT LeftFoot
				{
					OFFSET -0.069008 -29.568123 -0.266800
					CHANNELS 3 Xrotation Yrotation Zrotation
					JOINT LeftToeBase
					{
						OFFSET 3.145500 -8.631000 16.059900
						CHANNELS 3 Xrotation Yrotation Zrotation
						End Site
						{
							OFFSET 0.000000 18.501587 0.000000
						}
					}
				}
			}
			JOINT Left_ShortSleeve
			{
				OFFSET 0.265923 -10.480953 1.153800
				CHANNELS 3 Xrotation Yrotation Zrotation
				End Site
				{
					OFFSET 1.725763 19.823879 0.000000
				}
			}
		}
		JOINT RightUpLeg
		{
			OFFSET -6.797100 -2.508499 -1.318700
			CHANNELS 3 Xrotation Yrotation Zrotation
			JOINT RightLeg
			{
				OFFSET -0.082453 -29.241932 0.688000
				CHANNELS 3 Xrotation Yrotation Zrotation
				JOINT RightFoot
				{
					OFFSET 0.082453 -29.568058 -0.264600
					CHANNELS 3 Xrotation Yrotation Zrotation
					JOINT RightToeBase
					{
						OFFSET -3.115300 -8.682800 16.113400
						CHANNELS 3 Xrotation Yrotation Zrotation
						End Site
						{
							OFFSET 0.000000 18.567114 0.000000
						}
					}
				}
			}
			JOINT Right_ShortSleeve
			{
				OFFSET -0.265923 -10.480953 1.153800
				CHANNELS 3 Xrotation Yrotation Zrotation
				End Site
				{
					OFFSET -1.725766 19.823910 0.000000
				}
			}
		}
	}
	JOINT Spine
	{
		OFFSET 0.000000 13.368103 0.470500
		CHANNELS 3 Xrotation Yrotation Zrotation
		JOINT Spine1
		{
			OFFSET 0.147000 13.837402 0.538800
			CHANNELS 3 Xrotation Yrotation Zrotation
			JOINT Spine2
			{
				OFFSET 0.168000 16.242897 -1.435500
				CHANNELS 3 Xrotation Yrotation Zrotation
				JOINT Neck
				{
					OFFSET 0.217200 18.631500 -1.679100
					CHANNELS 3 Xrotation Yrotation Zrotation
					JOINT Head
					{
						OFFSET 0.000000 6.599396 1.385900
						CHANNELS 3 Xrotation Yrotation Zrotation
						JOINT Hat
						{
							OFFSET -0.532200 27.220596 -10.096100
							CHANNELS 3 Xrotation Yrotation Zrotation
							End Site
							{
								OFFSET 0.000000 22.029861 0.000000
							}
						}
						JOINT HairD
						{
							OFFSET -10.777400 17.437393 -1.325900
							CHANNELS 3 Xrotation Yrotation Zrotation
							JOINT HairD1
							{
								OFFSET -3.290299 -11.051193 1.062200
								CHANNELS 3 Xrotation Yrotation Zrotation
								End Site
								{
									OFFSET 0.000000 11.579437 0.000000
								}
							}
						}
						JOINT HairB
						{
							OFFSET -10.777400 17.437393 1.467900
							CHANNELS 3 Xrotation Yrotation Zrotation
							JOINT HairB1
							{
								OFFSET -1.561200 -12.956299 3.590200
								CHANNELS 3 Xrotation Yrotation Zrotation
								End Site
								{
									OFFSET 0.000000 13.534866 0.000000
								}
							}
						}
						JOINT HairA
						{
							OFFSET 9.713100 17.437393 1.467900
							CHANNELS 3 Xrotation Yrotation Zrotation
							JOINT HairA1
							{
								OFFSET 1.561200 -12.956299 3.590200
								CHANNELS 3 Xrotation Yrotation Zrotation
								End Site
								{
									OFFSET 0.000000 13.534866 0.000000
								}
							}
						}
						JOINT HairC
						{
							OFFSET 9.713100 17.437393 -1.325900
							CHANNELS 3 Xrotation Yrotation Zrotation
							JOINT HairC1
							{
								OFFSET 3.290300 -11.051193 1.062200
								CHANNELS 3 Xrotation Yrotation Zrotation
								End Site
								{
									OFFSET 0.000000 11.579437 0.000000
								}
							}
						}
					}
				}
				JOINT LeftShoulder
				{
					OFFSET 5.101800 15.108002 -2.763700
					CHANNELS 3 Xrotation Yrotation Zrotation
					JOINT LeftArm
					{
						OFFSET 9.825497 2.506317 -1.597400
						CHANNELS 3 Xrotation Yrotation Zrotation
						JOINT LeftForeArm
						{
							OFFSET 21.966244 0.000000 0.000000
							CHANNELS 3 Xrotation Yrotation Zrotation
							JOINT LeftHand
							{
								OFFSET 33.879036 0.000000 0.000000
								CHANNELS 3 Xrotation Yrotation Zrotation
								JOINT LeftHandThumb1
								{
									OFFSET 6.715286 -2.359680 3.363841
									CHANNELS 3 Xrotation Yrotation Zrotation
									JOINT LeftHandThumb2
									{
										OFFSET 2.507072 -1.447464 1.447461
										CHANNELS 3 Xrotation Yrotation Zrotation
										JOINT LeftHandThumb3
										{
											OFFSET 2.898338 -1.673355 1.673357
											CHANNELS 3 Xrotation Yrotation Zrotation
											End Site
											{
												OFFSET -0.295959 3.727692 -0.131651
											}
										}
									}
								}
								JOINT LeftHandIndex1
								{
									OFFSET 14.190811 -0.254547 3.840278
									CHANNELS 3 Xrotation Yrotation Zrotation
									JOINT LeftHandIndex2
									{
										OFFSET 3.551727 0.000000 -0.000000
										CHANNELS 3 Xrotation Yrotation Zrotation
										JOINT LeftHandIndex3
										{
											OFFSET 2.894196 0.000000 0.000000
											CHANNELS 3 Xrotation Yrotation Zrotation
											End Site
											{
												OFFSET -1.000603 2.690872 0.366626
											}
										}
									}
								}
								JOINT LeftHandMiddle1
								{
									OFFSET 13.776489 0.000000 0.000000
									CHANNELS 3 Xrotation Yrotation Zrotation
									JOINT LeftHandMiddle2
									{
										OFFSET 3.438232 0.000000 0.000000
										CHANNELS 3 Xrotation Yrotation Zrotation
										JOINT LeftHandMiddle3
										{
											OFFSET 3.691551 0.000000 0.000000
											CHANNELS 3 Xrotation Yrotation Zrotation
											End Site
											{
												OFFSET -1.082298 3.499527 0.457670
											}
										}
									}
								}
								JOINT LeftHandRing1
								{
									OFFSET 13.966164 -0.268127 -3.067488
									CHANNELS 3 Xrotation Yrotation Zrotation
									JOINT LeftHandRing2
									{
										OFFSET 3.162567 0.000000 0.000000
										CHANNELS 3 Xrotation Yrotation Zrotation
										JOINT LeftHandRing3
										{
											OFFSET 3.324348 0.000000 0.000000
											CHANNELS 3 Xrotation Yrotation Zrotation
											End Site
											{
												OFFSET -0.861900 3.184998 0.405154
											}
										}
									}
								}
								JOINT LeftHandPinky1
								{
									OFFSET 13.131393 -0.168503 -5.746925
									CHANNELS 3 Xrotation Yrotation Zrotation
									JOINT LeftHandPinky2
									{
										OFFSET 2.849182 0.000000 0.000000
										CHANNELS 3 Xrotation Yrotation Zrotation
										JOINT LeftHandPinky3
										{
											OFFSET 2.805038 0.000000 0.000000
											CHANNELS 3 Xrotation Yrotation Zrotation
											End Site
											{
												OFFSET -0.882500 2.642609 0.325652
											}
										}
									}
								}
							}
							JOINT Left_Sleeve
							{
								OFFSET 6.592125 -0.646545 0.805568
								CHANNELS 3 Xrotation Yrotation Zrotation
								End Site
								{
									OFFSET -0.000179 20.275787 -0.000000
								}
							}
						}
					}
				}
				JOINT RightShoulder
				{
					OFFSET -5.731700 15.108002 -2.763700
					CHANNELS 3 Xrotation Yrotation Zrotation
					JOINT RightArm
					{
						OFFSET -9.825497 2.506317 -1.597400
						CHANNELS 3 Xrotation Yrotation Zrotation
						JOINT RightForeArm
						{
							OFFSET -21.966242 0.000000 0.000000
							CHANNELS 3 Xrotation Yrotation Zrotation
							JOINT RightHand
							{
								OFFSET -33.879032 0.000000 0.000000
								CHANNELS 3 Xrotation Yrotation Zrotation
								JOINT RightHandThumb1
								{
									OFFSET -6.715286 -2.359680 3.363841
									CHANNELS 3 Xrotation Yrotation Zrotation
									JOINT RightHandThumb2
									{
										OFFSET -2.507072 -1.447464 1.447461
										CHANNELS 3 Xrotation Yrotation Zrotation
										JOINT RightHandThumb3
										{
											OFFSET -2.898338 -1.673355 1.673357
											CHANNELS 3 Xrotation Yrotation Zrotation
											End Site
											{
												OFFSET 0.295959 3.727692 -0.131651
											}
										}
									}
								}
								JOINT RightHandIndex1
								{
									OFFSET -14.190811 -0.254547 3.840278
									CHANNELS 3 Xrotation Yrotation Zrotation
									JOINT RightHandIndex2
									{
										OFFSET -3.551727 0.000000 -0.000000
										CHANNELS 3 Xrotation Yrotation Zrotation
										JOINT RightHandIndex3
										{
											OFFSET -2.894196 0.000000 0.000000
											CHANNELS 3 Xrotation Yrotation Zrotation
											End Site
											{
												OFFSET 1.000603 2.690872 0.366626
											}
										}
									}
								}
								JOINT RightHandMiddle1
								{
									OFFSET -13.776489 0.000000 0.000000
									CHANNELS 3 Xrotation Yrotation Zrotation
									JOINT RightHandMiddle2
									{
										OFFSET -3.438232 0.000000 0.000000
										CHANNELS 3 Xrotation Yrotation Zrotation
										JOINT RightHandMiddle3
										{
											OFFSET -3.691551 0.000000 0.000000
											CHANNELS 3 Xrotation Yrotation Zrotation
											End Site
											{
												OFFSET 1.082298 3.499527 0.457670
											}
										}
									}
								}
								JOINT RightHandRing1
								{
									OFFSET -13.966164 -0.268127 -3.067488
									CHANNELS 3 Xrotation Yrotation Zrotation
									JOINT RightHandRing2
									{
										OFFSET -3.162567 0.000000 0.000000
										CHANNELS 3 Xrotation Yrotation Zrotation
										JOINT RightHandRing3
										{
											OFFSET -3.324348 0.000000 0.000000
											CHANNELS 3 Xrotation Yrotation Zrotation
											End Site
											{
												OFFSET 0.861900 3.184998 0.405154
											}
										}
									}
								}
								JOINT RightHandPinky1
								{
									OFFSET -13.131393 -0.168503 -5.746925
									CHANNELS 3 Xrotation Yrotation Zrotation
									JOINT RightHandPinky2
									{
										OFFSET -2.849182 0.000000 0.000000
										CHANNELS 3 Xrotation Yrotation Zrotation
										JOINT RightHandPinky3
										{
											OFFSET -2.805038 0.000000 0.000000
											CHANNELS 3 Xrotation Yrotation Zrotation
											End Site
											{
												OFFSET 0.882500 2.642609 0.325652
											}
										}
									}
								}
							}
							JOINT Right_Sleeve
							{
								OFFSET -6.592125 -0.646545 0.805568
								CHANNELS 3 Xrotation Yrotation Zrotation
								End Site
								{
									OFFSET 0.000179 20.275787 -0.000000
								}
							}
						}
					}
				}
				JOINT Bind_Right_JacketString
				{
					OFFSET -3.534800 11.969597 7.200700
					CHANNELS 3 Xrotation Yrotation Zrotation
					JOINT Bind_Right_JacketString1
					{
						OFFSET -0.319900 -6.102600 2.794100
						CHANNELS 3 Xrotation Yrotation Zrotation
						End Site
						{
							OFFSET 0.000000 6.719452 0.000000
						}
					}
				}
				JOINT Bind_Left_JacketString
				{
					OFFSET 2.904800 11.969597 7.200700
					CHANNELS 3 Xrotation Yrotation Zrotation
					JOINT Bind_Left_JacketString1
					{
						OFFSET 0.364800 -5.904503 3.186800
						CHANNELS 3 Xrotation Yrotation Zrotation
						End Site
						{
							OFFSET 0.000000 6.719513 0.000000
						}
					}
				}
				JOINT HairE
				{
					OFFSET 5.915200 17.612701 -11.592200
					CHANNELS 3 Xrotation Yrotation Zrotation
					JOINT HairE1
					{
						OFFSET 0.289200 -7.171898 -1.284500
						CHANNELS 3 Xrotation Yrotation Zrotation
						End Site
						{
							OFFSET 0.000000 7.291756 0.000000
						}
					}
				}
				JOINT HairF
				{
					OFFSET -0.864800 17.612701 -11.592200
					CHANNELS 3 Xrotation Yrotation Zrotation
					JOINT HairF1
					{
						OFFSET 0.000000 -14.087097 -2.127501
						CHANNELS 3 Xrotation Yrotation Zrotation
						End Site
						{
							OFFSET 0.000000 14.246841 0.000000
						}
					}
				}
				JOINT HairG
				{
					OFFSET -8.087700 17.612701 -11.592200
					CHANNELS 3 Xrotation Yrotation Zrotation
					JOINT HairG1
					{
						OFFSET -0.293600 -6.081398 -0.910100
						CHANNELS 3 Xrotation Yrotation Zrotation
						End Site
						{
							OFFSET 0.000000 6.156120 0.000000
						}
					}
				}
			}
		}
	}
	JOINT Pouch
	{
		OFFSET 0.000000 4.394501 10.847300
		CHANNELS 3 Xrotation Yrotation Zrotation
		End Site
		{
			OFFSET 0.000000 21.880577 0.000000
		}
	}
	JOINT Bag
	{
		OFFSET -13.229000 4.813004 -0.593300
		CHANNELS 3 Xrotation Yrotation Zrotation
		End Site
		{
			OFFSET 0.000000 21.880577 0.000000
		}
	}
	JOINT OccupyGuyFacialAnim_Joint
	{
		OFFSET 1.000000 -70.206398 -1.655000
		CHANNELS 3 Xrotation Yrotation Zrotation
		End Site
		{
			OFFSET 0.000000 21.880577 0.000000
		}
	}
}
MOTION
Frames: 4
Frame Time: 0.033333
-2.685529 66.813110 78.578697 2.073714 -7.137201 -1.032016 0.000000 -0.000000 0.000000 -14.358366 7.596326 5.107545 44.243640 -10.254376 -1.289294 -31.780255 -14.062349 -1.333111 0.000000 0.000001 0.000000 -0.000001 0.000000 -0.000000 -34.453738 -5.006710 4.680591 39.408064 8.576167 -5.159189 -5.855898 5.153000 5.295826 -0.000000 -0.000000 -0.000000 0.000001 0.000000 0.000001 3.387678 0.871400 -2.150882 4.347030 2.038286 -2.352955 4.391465 2.013974 -2.417983 1.352539 -0.506428 -1.031342 6.925945 -5.361195 7.915715 -0.000000 -0.000001 0.000000 -0.000000 -0.000001 0.000000 -0.000000 -0.000001 0.000000 -0.000000 -0.000001 0.000000 -0.000000 -0.000001 0.000000 -0.000000 -0.000001 0.000000 -0.000000 -0.000001 0.000000 -0.000000 -0.000001 0.000000 -0.000000 -0.000001 0.000000 0.659989 -2.386221 -17.328572 -19.115814 4.337346 -53.371146 -0.000002 -18.389454 -0.000014 4.595467 35.030852 16.432487 -20.283855 -19.513321 -6.432704 191.962986 136.597144 201.092230 0.000002 0.000001 -0.000002 -9.417398 -20.371287 -23.779814 0.506824 2.385482 -23.986303 0.000001 0.000000 -0.000002 -14.863834 -12.338705 -43.445310 4.684555 5.733992 -78.480615 0.000000 -0.000000 0.000000 -14.689256 -4.526213 -57.030703 6.022001 5.848588 -91.676957 -0.000000 -0.000001 -0.000000 -9.752828 3.904951 -73.873789 6.071672 5.846929 -92.164544 0.000002 -0.000001 0.000005 -0.000000 -0.000000 -0.000002 0.482739 4.512436 17.402282 -19.026457 -2.680680 50.661036 -0.000122 78.591886 0.000138 -31.321615 35.554792 -15.670138 6.497507 4.980478 30.679792 36.155856 -47.234563 14.248447 -0.000003 0.000000 0.000001 5.760060 -6.865649 94.365989 4.690693 -4.657026 90.413256 -0.000001 -0.000001 0.000004 7.976281 -6.090186 108.737117 5.523382 -4.576067 100.730585 0.000000 0.000001 -0.000001 7.535566 -6.319862 105.783019 4.922515 -4.649639 93.269744 -0.000000 -0.000001 -0.000004 7.167006 -6.254596 126.616380 5.858625 -4.499884 104.965678 -0.000000 -0.000001 0.000000 0.000000 0.000000 0.000001 0.000000 0.000000 -0.000000 0.000001 0.000000 0.000000 0.000000 0.000000 -0.000000 0.000000 0.000000 -0.000000 0.000000 0.000000 -0.000000 0.000001 0.000000 -0.000000 0.000000 0.000000 -0.000000 0.000000 0.000000 -0.000000 0.000000 0.000000 -0.000000 0.000001 0.000000 -0.000000 0.000000 -0.000000 0.000000 0.000000 -0.000000 0.000000 0.000000 -0.000000 0.000000 
-3.125704 66.901146 79.440811 2.179347 -6.219512 -1.365504 0.000000 0.000000 0.000000 -13.454117 7.431759 6.106325 43.296361 -10.246653 -1.475172 -31.501502 -14.895429 -2.484694 0.000000 0.000001 -0.000000 -0.000000 0.000000 -0.000000 -33.355581 -5.862706 5.091053 39.244389 8.084337 -5.230992 -6.851425 4.596086 3.840295 -0.000000 -0.000000 0.000000 0.000000 0.000001 -0.000001 3.205510 0.873598 -1.663336 3.962444 1.964414 -2.024571 4.005638 1.944340 -2.089489 1.483342 -0.615455 -1.043409 7.021489 -5.861967 7.602328 -0.000001 0.000000 0.000000 -0.000001 0.000000 0.000000 -0.000001 0.000000 0.000000 -0.000001 0.000000 -0.000000 -0.000001 0.000000 -0.000000 -0.000001 0.000000 -0.000000 -0.000001 0.000000 -0.000000 -0.000001 0.000000 0.000000 -0.000001 0.000000 0.000000 0.659368 -2.409365 -17.428744 -16.787280 6.230304 -53.512241 -0.000002 -20.569513 0.000004 5.285567 34.159958 16.194459 -19.581765 -19.469287 -6.812199 191.817749 136.752436 200.909318 0.000003 -0.000000 -0.000001 -9.946442 -20.844472 -24.540306 0.506842 2.385527 -23.986822 0.000002 0.000000 -0.000002 -15.546291 -13.384769 -43.224108 4.678994 5.732861 -78.424915 0.000000 0.000001 0.000001 -15.664202 -5.089818 -57.361568 6.022810 5.848562 -91.684921 -0.000001 -0.000001 -0.000003 -11.250437 3.529810 -74.121992 6.083461 5.846474 -92.280186 0.000000 -0.000002 -0.000001 -0.000000 -0.000001 -0.000000 0.497667 4.293722 17.378503 -18.530501 -3.236548 50.433085 -0.000072 75.569698 0.000084 -30.159178 35.141825 -16.309320 6.555146 5.276313 30.502382 37.381496 -46.306712 15.703781 0.000002 -0.000001 0.000000 6.281895 -6.751622 98.391027 4.690792 -4.657022 90.414274 -0.000000 -0.000000 0.000000 8.740929 -5.647932 112.628583 5.525252 -4.575699 100.754101 -0.000001 -0.000000 -0.000003 8.244462 -5.966382 109.591649 4.917059 -4.649926 93.202453 -0.000001 -0.000003 -0.000002 8.071966 -5.539992 130.029235 5.860006 -4.499484 104.983682 -0.000002 -0.000000 0.000000 -0.000000 -0.000000 -0.000001 -0.000000 -0.000000 -0.000000 -0.000000 0.000000 -0.000000 -0.000000 -0.000000 -0.000000 -0.000000 -0.000000 -0.000000 -0.000000 -0.000000 -0.000000 -0.000000 0.000000 -0.000000 -0.000000 -0.000000 -0.000000 -0.000000 -0.000000 -0.000000 -0.000000 -0.000000 -0.000000 -0.000000 0.000000 -0.000000 0.000000 0.000000 0.000000 0.000000 0.000000 0.000000 0.000000 0.000000 0.000000 
-3.595205 66.982193 80.260094 2.171754 -5.469374 -1.864140 0.000000 0.000001 -0.000000 -12.318163 7.323428 7.137122 42.276566 -10.068734 -1.565756 -31.776414 -15.782725 -3.159818 0.000000 -0.000000 0.000000 0.000000 0.000000 -0.000000 -31.844367 -6.538596 5.861392 38.835021 7.456904 -5.041925 -8.547213 4.618416 1.238176 0.000000 0.000000 0.000000 -0.000000 -0.000001 0.000000 3.068328 0.914291 -1.218677 3.670754 2.006197 -1.642239 3.713156 1.989187 -1.707177 1.555480 -0.746949 -0.990485 7.145153 -6.417848 7.520504 0.000002 0.000000 -0.000000 0.000002 0.000000 -0.000000 0.000002 0.000000 0.000000 0.000002 0.000000 -0.000000 0.000001 -0.000001 -0.000000 0.000002 0.000000 -0.000000 0.000001 -0.000001 -0.000000 0.000002 0.000000 -0.000000 0.000002 0.000000 -0.000000 0.655643 -2.433428 -17.195848 -14.101510 8.257539 -54.185796 0.000008 -23.321316 0.000007 5.483013 33.238190 16.109326 -18.880229 -19.438910 -7.187979 191.690803 136.910391 200.704808 0.000004 0.000005 0.000004 -10.489740 -21.308824 -25.306527 0.506844 2.385524 -23.986784 0.000001 0.000001 -0.000002 -16.220149 -14.440509 -43.017607 4.673428 5.731725 -78.369201 0.000001 0.000001 -0.000001 -16.644643 -5.645829 -57.700639 6.023611 5.848538 -91.692824 -0.000000 0.000001 -0.000003 -12.750420 3.166512 -74.379271 6.095218 5.845996 -92.395712 -0.000001 -0.000002 0.000003 -0.000001 0.000001 -0.000001 0.499987 4.257110 17.398030 -18.339317 -3.696498 50.330506 -0.000054 69.683311 0.000049 -28.384222 34.710407 -16.732432 6.614847 5.562964 30.310573 36.654647 -46.515914 14.951709 -0.000003 0.000000 -0.000000 6.333459 -6.736681 98.840330 4.689787 -4.657033 90.401939 0.000002 0.000000 0.000004 8.543709 -5.691072 113.561956 5.530018 -4.574816 100.813927 0.000001 -0.000001 -0.000001 8.060201 -6.011616 110.162038 4.920365 -4.649759 93.243366 -0.000001 -0.000000 -0.000000 7.638604 -5.904238 130.785227 5.841373 -4.504431 104.746183 -0.000001 0.000001 0.000001 -0.000000 -0.000000 -0.000000 -0.000000 -0.000000 -0.000000 -0.000000 -0.000000 0.000000 -0.000000 -0.000000 -0.000000 -0.000000 -0.000000 -0.000000 -0.000000 -0.000000 -0.000000 -0.000000 -0.000000 -0.000000 -0.000000 -0.000000 -0.000000 -0.000000 -0.000000 -0.000000 -0.000000 -0.000000 -0.000000 -0.000000 -0.000000 -0.000000 0.000000 0.000001 -0.000000 0.000000 0.000001 -0.000000 0.000000 0.000001 -0.000000 
-4.065536 67.030762 81.084175 1.995599 -4.563208 -2.325065 -0.000000 -0.000000 0.000000 -10.992126 7.090189 8.035496 41.307526 -9.867770 -1.593988 -32.246833 -16.641776 -3.746527 0.000000 -0.000001 -0.000000 -0.000000 0.000001 -0.000000 -30.575980 -7.084393 6.394847 38.895984 7.120593 -4.853482 -9.738473 4.318020 0.088300 -0.000000 0.000000 0.000000 -0.000001 0.000001 -0.000000 2.996124 0.959254 -0.777112 3.509642 2.078367 -1.176566 3.551390 2.063747 -1.241500 1.562301 -0.878513 -1.082458 7.012659 -7.151038 7.280030 0.000002 -0.000000 0.000000 0.000002 -0.000000 0.000000 0.000002 -0.000000 0.000000 0.000002 -0.000000 0.000000 -0.000002 -0.000000 0.000000 0.000002 -0.000000 0.000000 -0.000002 -0.000000 0.000000 0.000002 -0.000000 0.000000 0.000002 -0.000000 0.000000 0.656798 -2.426127 -17.270215 -11.366615 9.768529 -54.849523 0.000004 -25.931068 0.000018 5.046992 32.280570 15.925742 -18.179127 -19.421947 -7.559914 191.581328 137.070559 200.479631 -0.000003 0.000001 -0.000002 -11.047195 -21.764078 -26.078420 0.506793 2.385417 -23.985625 0.000001 0.000001 0.000002 -16.885826 -15.505593 -42.825856 4.667864 5.730583 -78.313535 -0.000001 -0.000001 -0.000001 -17.630668 -6.194073 -58.047831 6.024411 5.848517 -91.700679 0.000000 0.000001 0.000001 -14.252835 2.815425 -74.645505 6.106975 5.845492 -92.511163 -0.000000 -0.000001 0.000001 -0.000000 0.000000 0.000002 0.473792 4.600686 17.684922 -18.607618 -3.828851 49.572328 -0.000015 62.246840 0.000009 -26.422665 34.249133 -16.463932 6.676865 5.840721 30.104875 32.359544 -49.673043 9.912069 -0.000000 0.000001 0.000001 6.210229 -6.734307 100.500264 4.702244 -4.656927 90.555338 -0.000001 -0.000001 0.000002 9.684428 -5.029765 116.166314 5.554828 -4.570018 101.125185 0.000001 -0.000000 0.000003 8.862759 -5.620094 112.160066 4.915325 -4.650034 93.180876 -0.000000 0.000000 -0.000001 9.484972 -4.229251 132.451985 5.819099 -4.510196 104.462457 -0.000000 0.000001 -0.000003 0.000001 -0.000000 0.000001 -0.000000 0.000000 0.000001 -0.000000 0.000000 0.000000 -0.000000 0.000000 0.000001 -0.000000 0.000000 0.000001 -0.000000 0.000000 0.000001 -0.000000 0.000000 0.000000 -0.000000 0.000000 0.000001 -0.000000 0.000000 0.000001 -0.000000 0.000000 0.000001 -0.000000 0.000000 0.000000 -0.000000 -0.000000 0.000000 -0.000000 -0.000000 0.000000 -0.000000 -0.000000 0.000000 
